<svg width="16" height="16" viewBox="0 0 16 16" fill="none" xmlns="http://www.w3.org/2000/svg">
<path d="M14.0669 5.91666L8.46693 11.5333C8.40026 11.6 8.32804 11.6471 8.25026 11.6747C8.17248 11.7027 8.08915 11.7167 8.00026 11.7167C7.91137 11.7167 7.82804 11.7027 7.75026 11.6747C7.67248 11.6471 7.60026 11.6 7.53359 11.5333L1.91693 5.91666C1.76137 5.7611 1.68359 5.56666 1.68359 5.33333C1.68359 5.09999 1.76693 4.89999 1.93359 4.73333C2.10026 4.56666 2.2947 4.48333 2.51693 4.48333C2.73915 4.48333 2.93359 4.56666 3.10026 4.73333L8.00026 9.63333L12.9003 4.73333C13.0558 4.57777 13.2474 4.49999 13.4749 4.49999C13.7029 4.49999 13.9003 4.58333 14.0669 4.74999C14.2336 4.91666 14.3169 5.1111 14.3169 5.33333C14.3169 5.55555 14.2336 5.74999 14.0669 5.91666Z" fill="#86868A"/>
</svg>
